<?xml version="1.0" encoding="UTF-8"?>
<svg xmlns="http://www.w3.org/2000/svg" xmlns:xlink="http://www.w3.org/1999/xlink" viewBox="0 0 48 48" width="48px" height="48px">
<g id="surface1027157">
<path style=" stroke:none;fill-rule:nonzero;fill:rgb(100%,100%,100%);fill-opacity:1;" d="M 24 44.878906 C 12.46875 44.878906 3.121094 35.53125 3.121094 24 C 3.121094 12.46875 12.46875 3.121094 24 3.121094 C 35.53125 3.121094 44.878906 12.46875 44.878906 24 C 44.878906 35.53125 35.53125 44.878906 24 44.878906 Z M 24 44.878906 "/>
<path style=" stroke:none;fill-rule:nonzero;fill:rgb(100%,75.686276%,2.745098%);fill-opacity:1;" d="M 39.6875 20.867188 L 38.398438 20.867188 L 38.398438 20.800781 L 24 20.800781 L 24 27.199219 L 33.042969 27.199219 C 31.722656 30.925781 28.179688 33.601562 24 33.601562 C 18.699219 33.601562 14.398438 29.300781 14.398438 24 C 14.398438 18.699219 18.699219 14.398438 24 14.398438 C 26.445312 14.398438 28.671875 15.324219 30.367188 16.832031 L 34.894531 12.304688 C 32.035156 9.640625 28.214844 8 24 8 C 15.164062 8 8 15.164062 8 24 C 8 32.835938 15.164062 40 24 40 C 32.835938 40 40 32.835938 40 24 C 40 22.925781 39.890625 21.878906 39.6875 20.867188 Z M 39.6875 20.867188 "/>
<path style=" stroke:none;fill-rule:nonzero;fill:rgb(100%,23.921569%,0%);fill-opacity:1;" d="M 9.84375 16.554688 L 15.101562 20.40625 C 16.523438 16.886719 19.96875 14.398438 24 14.398438 C 26.445312 14.398438 28.671875 15.324219 30.367188 16.832031 L 34.894531 12.304688 C 32.035156 9.640625 28.214844 8 24 8 C 17.855469 8 12.523438 11.46875 9.84375 16.554688 Z M 9.84375 16.554688 "/>
<path style=" stroke:none;fill-rule:nonzero;fill:rgb(29.803923%,68.627453%,31.37255%);fill-opacity:1;" d="M 24 40 C 28.132812 40 31.886719 38.417969 34.726562 35.847656 L 29.773438 31.65625 C 28.167969 32.871094 26.171875 33.601562 24 33.601562 C 19.839844 33.601562 16.304688 30.945312 14.972656 27.242188 L 9.757812 31.261719 C 12.402344 36.445312 17.78125 40 24 40 Z M 24 40 "/>
<path style=" stroke:none;fill-rule:nonzero;fill:rgb(9.803922%,46.27451%,82.352942%);fill-opacity:1;" d="M 39.6875 20.867188 L 38.398438 20.867188 L 38.398438 20.800781 L 24 20.800781 L 24 27.199219 L 33.042969 27.199219 C 32.410156 28.988281 31.257812 30.53125 29.773438 31.65625 L 34.726562 35.84375 C 34.375 36.164062 40 32 40 24 C 40 22.925781 39.890625 21.878906 39.6875 20.867188 Z M 39.6875 20.867188 "/>
</g>
</svg>
